<svg xmlns="http://www.w3.org/2000/svg" viewBox="0 0 64 64" xmlns:xlink="http://www.w3.org/1999/xlink" version="1.1">
<g id="surface1">
<path style=" " d="M 25.7188 2.00781 C 25.457 2.01563 25.1953 2.03906 24.9336 2.07813 C 22.4531 2.44531 20.293 4.23438 19.4219 6.625 C 19.2344 7.13672 19.1133 7.65625 19.0469 8.1875 C 18.5625 8.06641 18.0625 8.00781 17.5547 8.00391 C 17.5352 8.00391 17.5195 8 17.5 8 C 17.4883 8 17.4805 8.00781 17.4688 8.00781 C 17.0469 8.01172 16.625 8.04297 16.1992 8.12891 C 13.6836 8.625 11.6523 10.6484 11.1367 13.1641 C 10.9336 14.168 10.957 15.1719 11.207 16.1289 C 8.23828 16.7305 6 19.3594 6 22.5 C 6 23.6133 6.28516 24.6992 6.82031 25.6563 C 6.50391 25.7969 6.19922 25.957 5.90234 26.1367 C 5.83594 26.1758 5.76953 26.2148 5.70313 26.2539 C 5.43359 26.4297 5.16797 26.6133 4.92188 26.8164 C 4.8125 26.9063 4.71875 27 4.61719 27.0938 C 4.52734 27.1758 4.42969 27.2539 4.34375 27.3438 C 4.32813 27.3555 4.32422 27.375 4.3125 27.3906 C 2.875 28.8398 2 30.8242 2 33 C 2 35.25 2.96875 37.4023 4.62109 38.9102 C 4.61719 38.9219 4.61328 38.9375 4.60938 38.9492 C 4.57422 39.0313 4.54688 39.1133 4.51563 39.1992 C 4.42969 39.4258 4.35547 39.6563 4.29297 39.8906 C 4.27734 39.9453 4.25 40 4.23438 40.0586 C 4.23047 40.0781 4.23828 40.0977 4.23438 40.1172 C 4.08594 40.7305 4 41.3633 4 42 C 4 45.3438 6.05078 48.2734 9.10156 49.4531 C 9.09766 49.4609 9.10156 49.4688 9.10156 49.4805 C 9.03516 49.8086 9 50.1484 9 50.5 C 9 53.3047 11.1094 55.625 13.8281 55.957 C 15.3945 59.5977 19.0039 62 23 62 C 25.625 62 28.1055 60.9883 29.9844 59.1563 C 31.0938 58.0703 32.9063 58.0703 34.0156 59.1563 C 35.8984 60.9883 38.375 62 41 62 C 44.9961 62 48.6055 59.5977 50.1719 55.957 C 52.8906 55.625 55 53.3047 55 50.5 C 55 50.1484 54.9648 49.8047 54.9023 49.4688 C 54.8984 49.4609 54.8984 49.457 54.8984 49.4531 C 57.9492 48.2734 60 45.3438 60 42 C 60 41.6914 59.9766 41.3906 59.9414 41.0859 C 59.9297 40.9688 59.9102 40.8555 59.8906 40.7383 C 59.8633 40.5586 59.8281 40.3828 59.7852 40.2031 C 59.7539 40.0664 59.7227 39.9297 59.6836 39.793 C 59.6406 39.6445 59.5898 39.5 59.5391 39.3555 C 59.4883 39.2109 59.4453 39.0664 59.3867 38.9219 C 59.3828 38.918 59.3828 38.918 59.3789 38.9102 C 61.0352 37.4023 62 35.25 62 33 C 62 30.2852 60.6523 27.875 58.5273 26.4219 C 58.5078 26.4063 58.4961 26.3828 58.4727 26.3672 C 58.4375 26.3398 58.3945 26.3203 58.3555 26.2969 C 58.2266 26.2148 58.0898 26.1406 57.957 26.0625 C 57.7695 25.957 57.582 25.8594 57.3867 25.7656 C 57.3125 25.7344 57.25 25.6914 57.1758 25.6602 C 57.7148 24.6992 58 23.6133 58 22.5 C 58 19.3594 55.7617 16.7305 52.793 16.1289 C 53.043 15.1719 53.0664 14.168 52.8633 13.1641 C 52.3477 10.6484 50.3164 8.62891 47.8008 8.12891 C 47.375 8.04297 46.9531 8.01172 46.5313 8.00781 C 46.5195 8.00781 46.5117 8 46.5 8 C 46.4805 8 46.4648 8.00391 46.4453 8.00391 C 46.1641 8.00781 45.8867 8.02344 45.6133 8.0625 C 45.5391 8.07422 45.4648 8.08984 45.3906 8.10156 C 45.2422 8.12891 45.0977 8.15234 44.9531 8.1875 C 44.8867 7.66016 44.7617 7.13672 44.5781 6.625 C 43.707 4.23438 41.5469 2.44531 39.0664 2.07813 C 36.9648 1.76563 34.8555 2.39844 33.293 3.82031 C 32.5664 4.47656 31.4336 4.47656 30.707 3.82031 C 29.3398 2.57813 27.5547 1.9375 25.7188 2.00781 Z M 25.793 4.00391 C 27.1094 3.95313 28.3828 4.41406 29.3594 5.29688 C 30.8398 6.64453 33.1563 6.64453 34.6367 5.29688 C 35.75 4.28516 37.2578 3.83203 38.7734 4.05469 C 40.5352 4.32031 42.0742 5.59375 42.6992 7.30859 C 42.9023 7.875 43 8.4375 42.9961 9.02344 C 42.0117 9.65234 41.1953 10.543 40.6563 11.6484 C 40.4141 12.1445 40.6211 12.7461 41.1133 12.9844 C 41.2578 13.0547 41.4063 13.0898 41.5547 13.0898 C 41.9258 13.0898 42.2813 12.8828 42.4531 12.5273 C 42.8945 11.625 43.6016 10.9297 44.4531 10.5 C 44.6641 10.3906 44.8828 10.2969 45.1055 10.2266 C 45.1211 10.2227 45.1328 10.2148 45.1484 10.2109 C 45.8711 9.98047 46.6406 9.94141 47.4102 10.0938 C 49.1445 10.4375 50.5469 11.832 50.9023 13.5664 C 51.1133 14.5977 50.9766 15.6289 50.5 16.5508 C 50.3398 16.8633 50.3984 17.2383 50.5859 17.5352 C 50.7734 17.8359 51.1484 18.0078 51.5 18 C 53.9805 18 56 20.0195 56 22.5 C 56 23.4414 55.6875 24.3438 55.1406 25.1055 C 53.8047 24.9102 52.4258 25.0391 51.1563 25.5195 C 50.6406 25.7148 50.3828 26.293 50.5781 26.8125 C 50.7734 27.3281 51.3555 27.5859 51.8711 27.3906 C 52.9805 26.9648 54.2188 26.8984 55.3789 27.1719 C 55.6758 27.2383 55.957 27.332 56.2305 27.4414 C 56.3125 27.4727 56.3906 27.5117 56.4688 27.5469 C 56.6836 27.6406 56.8867 27.7461 57.082 27.8633 C 57.1484 27.9063 57.2227 27.9414 57.2891 27.9844 C 58.9453 29.0625 60 30.918 60 33 C 60 34.5664 59.3984 36.0195 58.3359 37.125 C 57.7656 36.3828 57.0625 35.7344 56.2383 35.2188 C 55.7734 34.9219 55.1563 35.0664 54.8633 35.5313 C 54.5703 36 54.7109 36.6172 55.1797 36.9102 C 56.0664 37.4648 56.7734 38.2188 57.2539 39.0938 C 57.2617 39.1016 57.2578 39.1094 57.2656 39.1172 C 57.625 39.7773 57.8594 40.5 57.9531 41.2461 C 57.9844 41.4922 58 41.7461 58 42 C 58 44.5117 56.4453 46.6992 54.1523 47.5781 C 53.2266 46.1133 51.6328 45.1172 49.8008 45.0156 C 49.918 44.5273 50 44.0234 50 43.5 C 50 42.4336 49.7344 41.375 49.2344 40.4414 C 48.9766 39.9531 48.3711 39.7695 47.8828 40.0313 C 47.3945 40.2891 47.2109 40.8945 47.4727 41.3828 C 47.8242 42.0391 48 42.75 48 43.5 C 48 45.5859 46.5859 47.3828 44.5625 47.875 C 44.0273 48.0039 43.6953 48.543 43.8281 49.0781 C 43.9375 49.5391 44.3477 49.8438 44.7969 49.8438 C 44.875 49.8438 44.9531 49.8359 45.0313 49.8164 C 46.6836 49.418 48.0313 48.4063 48.9102 47.0703 C 49.1055 47.0352 49.3008 47 49.5 47 C 50.9609 47 52.2148 47.9023 52.7344 49.1797 C 52.8242 49.3906 52.8867 49.6016 52.9336 49.8203 C 52.9766 50.0391 53 50.2656 53 50.5 C 53 52.418 51.4492 53.9805 49.5352 54 C 49.0469 53.9805 48.6836 54.2461 48.5352 54.6641 C 47.4063 57.8555 44.3789 60 41 60 C 38.8984 60 36.918 59.1953 35.4141 57.7305 C 34.4727 56.8086 33.2344 56.3516 32 56.3516 C 30.7656 56.3516 29.5273 56.8086 28.5859 57.7305 C 27.082 59.1953 25.1016 60 23 60 C 19.6211 60 16.5938 57.8555 15.4648 54.6641 C 15.3164 54.2461 14.9609 53.9688 14.4648 54 C 12.5508 53.9805 11 52.418 11 50.5 C 11 50.2656 11.0234 50.0391 11.0664 49.8164 C 11.1133 49.5977 11.1797 49.3867 11.2656 49.1758 L 11.2656 49.1719 C 11.7891 47.8984 13.0391 47 14.5 47 C 14.6992 47 14.8945 47.0391 15.0898 47.0703 C 15.9648 48.4023 17.3086 49.4141 18.9531 49.8164 C 19.0313 49.8359 19.1133 49.8438 19.1914 49.8438 C 19.6406 49.8438 20.0508 49.5352 20.1602 49.0781 C 20.293 48.543 19.9648 48.0039 19.4258 47.8711 C 17.4102 47.3789 16 45.582 16 43.5 C 16 42.7969 16.1563 42.125 16.4688 41.5 C 16.7148 41.0039 16.5117 40.4023 16.0156 40.1563 C 15.5234 39.9102 14.9219 40.1133 14.6758 40.6094 C 14.2305 41.5117 14 42.4844 14 43.5 C 14 44.0234 14.082 44.5273 14.1992 45.0156 C 12.3672 45.1172 10.7734 46.1133 9.85156 47.5781 C 7.55469 46.6992 6 44.5117 6 42 C 6 41.4961 6.06641 40.9961 6.1875 40.5156 C 6.25 40.2656 6.32813 40.0234 6.42188 39.7891 C 6.46875 39.6758 6.52734 39.5664 6.57813 39.4531 C 6.88281 38.8086 7.29297 38.2109 7.8125 37.7031 C 8.20703 37.3203 8.21484 36.6875 7.82813 36.293 C 7.44141 35.8945 6.80859 35.8867 6.41406 36.2734 C 6.14063 36.5391 5.89063 36.8242 5.66016 37.125 C 4.60156 36.0156 4 34.5625 4 33 C 4 31.2969 4.71094 29.7539 5.87109 28.6563 C 5.94141 28.5898 6.01172 28.5234 6.08203 28.4648 C 6.28906 28.2852 6.50391 28.1172 6.73438 27.9688 C 6.76563 27.9453 6.80078 27.9297 6.82813 27.9102 C 7.37891 27.5703 7.98828 27.3086 8.64844 27.1563 C 8.65234 27.1563 8.65234 27.1563 8.65625 27.1563 C 9.09375 27.0547 9.54297 27 10 27 C 10.6094 27 11.2109 27.0898 11.7852 27.2695 C 12.3125 27.4297 12.8711 27.1406 13.0352 26.6094 C 13.1992 26.0859 12.9063 25.5234 12.375 25.3594 C 11.6094 25.1211 10.8086 25 10 25 C 9.60938 25 9.23047 25.0391 8.85156 25.0938 C 8.30859 24.332 8 23.4375 8 22.5 C 8 20.0195 10.0195 18 12.4727 18 C 12.4844 18 12.5664 18.0039 12.5781 18.0039 C 12.9297 18.0156 13.2656 17.8359 13.4531 17.5352 C 13.6406 17.2383 13.6563 16.8633 13.4961 16.5469 C 13.0234 15.6289 12.8867 14.5977 13.0938 13.5664 C 13.4492 11.832 14.8516 10.4375 16.5859 10.0938 C 17.0977 9.98828 17.6094 9.97656 18.1094 10.043 C 18.1328 10.0469 18.1563 10.0547 18.1758 10.0586 C 18.3828 10.0898 18.5859 10.1367 18.7852 10.1953 C 18.8516 10.2148 18.918 10.2383 18.9805 10.2617 C 19.1445 10.3203 19.3047 10.3867 19.4609 10.4609 C 20.2617 10.8516 20.9492 11.4648 21.4063 12.2656 C 21.5898 12.5859 21.9258 12.7656 22.2734 12.7656 C 22.4414 12.7656 22.6133 12.7227 22.7695 12.6328 C 23.25 12.3594 23.4141 11.7461 23.1406 11.2656 C 22.6094 10.3477 21.8672 9.59766 21 9.04297 C 20.9961 8.45313 21.0938 7.87891 21.3008 7.30859 C 21.9219 5.59375 23.4648 4.32031 25.2227 4.05469 C 25.4141 4.02734 25.6016 4.01172 25.793 4.00391 Z M 31 8 C 30.4492 8 30 8.44531 30 9 C 30 9.55469 30.4492 10 31 10 L 33 10 C 33.5508 10 34 9.55469 34 9 C 34 8.44531 33.5508 8 33 8 Z M 31 13 C 30.4492 13 30 13.4453 30 14 C 30 14.5547 30.4492 15 31 15 L 33 15 C 33.5508 15 34 14.5547 34 14 C 34 13.4453 33.5508 13 33 13 Z M 39.2344 15.957 C 39.1055 15.9844 38.9805 16.0313 38.8633 16.1094 C 37.0703 17.3242 36 19.3398 36 21.5 C 36 23.0078 36.5273 24.4766 37.4844 25.6367 C 37.6836 25.875 37.9688 26 38.2578 26 C 38.4805 26 38.707 25.9258 38.8945 25.7695 C 39.3203 25.418 39.3789 24.7891 39.0273 24.3633 C 38.3633 23.5625 38 22.543 38 21.5 C 38 20.0039 38.7422 18.6094 39.9844 17.7695 C 40.4414 17.4609 40.5625 16.8359 40.2539 16.3789 C 40.0195 16.0391 39.6133 15.8828 39.2344 15.957 Z M 24.6133 16.0859 C 24.3633 16.125 24.125 16.2578 23.9609 16.4805 C 23.6328 16.9258 23.7266 17.5508 24.1719 17.8789 C 25.3164 18.7266 26 20.0781 26 21.5 C 26 22.543 25.6367 23.5625 24.9727 24.3633 C 24.6211 24.7891 24.6797 25.418 25.1055 25.7695 C 25.293 25.9258 25.5195 26 25.7422 26 C 26.0313 26 26.3164 25.875 26.5156 25.6367 C 27.4727 24.4766 28 23.0078 28 21.5 C 28 19.4453 27.0117 17.4883 25.3594 16.2695 C 25.1367 16.1055 24.8672 16.0469 24.6133 16.0859 Z M 31 18 C 30.4492 18 30 18.4453 30 19 C 30 19.5547 30.4492 20 31 20 L 33 20 C 33.5508 20 34 19.5547 34 19 C 34 18.4453 33.5508 18 33 18 Z M 31 23 C 30.4492 23 30 23.4453 30 24 C 30 24.5547 30.4492 25 31 25 L 33 25 C 33.5508 25 34 24.5547 34 24 C 34 23.4453 33.5508 23 33 23 Z M 17.4297 23.0742 C 16.8789 23.0742 16.4297 23.5195 16.4297 24.0742 C 16.4297 26.5781 17.8281 28.8125 20.0781 29.9141 C 20.2188 29.9844 20.3672 30.0156 20.5156 30.0156 C 20.8867 30.0156 21.2422 29.8125 21.4141 29.4531 C 21.6563 28.9609 21.4492 28.3594 20.9531 28.1172 C 19.3945 27.3555 18.4297 25.8047 18.4297 24.0742 C 18.4297 23.5195 17.9805 23.0742 17.4297 23.0742 Z M 46.4961 23.3164 C 45.9453 23.3164 45.4961 23.7656 45.4961 24.3164 C 45.4961 25.9258 44.6289 27.4219 43.2344 28.2227 C 42.7539 28.5 42.5898 29.1094 42.8633 29.5898 C 43.0469 29.9102 43.3828 30.0938 43.7305 30.0938 C 43.8984 30.0938 44.0703 30.0469 44.2305 29.957 C 46.2461 28.8008 47.4961 26.6406 47.4961 24.3164 C 47.4961 23.7656 47.0469 23.3164 46.4961 23.3164 Z M 31 28 C 30.4492 28 30 28.4453 30 29 C 30 29.5547 30.4492 30 31 30 L 33 30 C 33.5508 30 34 29.5547 34 29 C 34 28.4453 33.5508 28 33 28 Z M 31 33 C 30.4492 33 30 33.4453 30 34 C 30 34.5547 30.4492 35 31 35 L 33 35 C 33.5508 35 34 34.5547 34 34 C 34 33.4453 33.5508 33 33 33 Z M 18.9023 34.9688 C 18.6484 34.9727 18.3945 34.9961 18.1406 35.0352 C 17.5938 35.1172 17.2188 35.6289 17.3008 36.1719 C 17.3828 36.7227 17.8945 37.0859 18.4375 37.0156 C 19.8438 36.7969 21.2891 37.2734 22.2969 38.2813 C 22.6445 38.6289 22.9297 39.0273 23.1445 39.4688 C 23.3203 39.8203 23.6758 40.0234 24.043 40.0234 C 24.1914 40.0195 24.3438 39.9883 24.4844 39.918 C 24.9805 39.6719 25.1836 39.0703 24.9375 38.5781 C 24.625 37.9414 24.2109 37.3711 23.707 36.8672 C 22.4375 35.5977 20.6836 34.9141 18.9023 34.9688 Z M 45.4258 34.9688 C 43.6484 34.9141 41.8945 35.5977 40.625 36.8672 C 40.1211 37.3711 39.707 37.9414 39.3906 38.5781 C 39.1484 39.0703 39.3516 39.6719 39.8438 39.918 C 39.9883 39.9883 40.1367 40.0195 40.2852 40.0195 C 40.6563 40.0195 41.0117 39.8203 41.1875 39.4688 C 41.4023 39.0273 41.6875 38.6289 42.0352 38.2813 C 43.0586 37.2617 44.4609 36.7969 45.8906 37.0156 C 46.4414 37.0859 46.9453 36.7188 47.0313 36.1719 C 47.1133 35.625 46.7344 35.1172 46.1875 35.0352 C 45.9336 34.9961 45.6836 34.9727 45.4258 34.9688 Z M 31 38 C 30.4492 38 30 38.4453 30 39 C 30 39.5547 30.4492 40 31 40 L 33 40 C 33.5508 40 34 39.5547 34 39 C 34 38.4453 33.5508 38 33 38 Z M 31 43 C 30.4492 43 30 43.4453 30 44 C 30 44.5547 30.4492 45 31 45 L 33 45 C 33.5508 45 34 44.5547 34 44 C 34 43.4453 33.5508 43 33 43 Z M 39.2344 45.957 C 39.1055 45.9844 38.9805 46.0313 38.8633 46.1094 C 37.0703 47.3242 36 49.3398 36 51.5 C 36 52.5273 36.2461 53.5508 36.7109 54.457 C 36.8867 54.8047 37.2383 55 37.6016 55 C 37.7539 55 37.9102 54.9688 38.0586 54.8906 C 38.5469 54.6406 38.7422 54.0391 38.4883 53.5469 C 38.1641 52.9102 38 52.2227 38 51.5 C 38 50.0039 38.7422 48.6094 39.9844 47.7695 C 40.4414 47.4609 40.5625 46.8359 40.2539 46.3789 C 40.0234 46.0391 39.6133 45.8828 39.2344 45.957 Z M 24.6133 46.0859 C 24.3633 46.125 24.125 46.2578 23.9609 46.4805 C 23.6328 46.9258 23.7266 47.5508 24.1719 47.8789 C 25.3164 48.7266 26 50.0781 26 51.5 C 26 52.2227 25.832 52.9102 25.5078 53.5469 C 25.2578 54.0391 25.4492 54.6406 25.9414 54.8945 C 26.0859 54.9688 26.2422 55.0039 26.3945 55.0039 C 26.7578 55.0039 27.1094 54.8086 27.2852 54.4609 C 27.7539 53.5547 28 52.5273 28 51.5 C 28 49.4453 27.0117 47.4883 25.3594 46.2695 C 25.1367 46.1055 24.8672 46.0469 24.6133 46.0859 Z M 31 48 C 30.4492 48 30 48.4453 30 49 C 30 49.5547 30.4492 50 31 50 L 33 50 C 33.5508 50 34 49.5547 34 49 C 34 48.4453 33.5508 48 33 48 Z M 31 53 C 30.4492 53 30 53.4453 30 54 C 30 54.5547 30.4492 55 31 55 L 33 55 C 33.5508 55 34 54.5547 34 54 C 34 53.4453 33.5508 53 33 53 Z" />
</g>
</svg>